<svg width="24" height="24" viewBox="0 0 24 24" fill="none" xmlns="http://www.w3.org/2000/svg">
<g clip-path="url(#clip0_29_2)">
<path fill-rule="evenodd" clip-rule="evenodd" d="M13.91 18.29C14.2475 18.4452 14.5942 18.5798 14.948 18.693C16.646 19.229 17.764 18.963 18.364 18.363C18.964 17.764 19.23 16.645 18.694 14.948C18.5807 14.5934 18.4458 14.2461 18.29 13.908C17.6615 14.7319 16.9776 15.5121 16.243 16.243C15.5124 16.9773 14.7326 17.6609 13.909 18.289L13.91 18.29ZM12 17.2C13.015 16.4994 13.9621 15.7053 14.829 14.828C15.7055 13.9614 16.499 13.0146 17.199 12C16.4991 10.9851 15.7056 10.0379 14.829 9.17101C13.962 8.29446 13.0149 7.501 12 6.80101C10.9854 7.50103 10.0386 8.29449 9.172 9.17101C8.29474 10.0379 7.5006 10.985 6.8 12C7.50004 13.0146 8.2935 13.9614 9.17 14.828C10.133 15.791 11.086 16.578 12 17.2ZM5.71 13.909C6.3 14.687 6.984 15.469 7.758 16.243C8.48823 16.9773 9.26771 17.6609 10.091 18.289C9.75325 18.4448 9.40626 18.5797 9.052 18.693C7.355 19.229 6.236 18.963 5.636 18.364C5.036 17.764 4.771 16.646 5.307 14.948C5.412 14.615 5.547 14.268 5.711 13.908L5.71 13.909ZM4.445 12C3.989 12.803 3.64 13.59 3.401 14.345C2.756 16.388 2.871 18.425 4.223 19.778C5.576 21.131 7.613 21.246 9.656 20.6C10.4717 20.335 11.2573 19.985 12 19.556C12.803 20.012 13.59 20.361 14.345 20.6C16.389 21.245 18.425 21.13 19.778 19.778C21.131 18.425 21.246 16.388 20.6 14.345C20.335 13.529 19.9851 12.743 19.556 12C20.012 11.197 20.361 10.41 20.6 9.65501C21.246 7.61201 21.131 5.57501 19.778 4.22201C18.426 2.86901 16.388 2.75401 14.345 3.40001C13.529 3.665 12.743 4.01491 12 4.44401C11.257 4.01491 10.471 3.665 9.655 3.40001C7.612 2.75401 5.575 2.86901 4.222 4.22201C2.869 5.57501 2.755 7.61201 3.4 9.65501C3.66499 10.4711 4.0149 11.257 4.444 12H4.445ZM5.712 10.091C6.302 9.31301 6.985 8.53101 7.759 7.75701C8.48924 7.02276 9.26872 6.33917 10.092 5.71101C9.75424 5.55527 9.40725 5.42035 9.053 5.30701C7.356 4.77101 6.237 5.03701 5.637 5.63601C5.037 6.23601 4.772 7.35401 5.308 9.05201C5.413 9.38501 5.548 9.73201 5.712 10.092V10.091ZM13.91 5.71101C14.2478 5.55526 14.5947 5.42034 14.949 5.30701C16.647 4.77101 17.765 5.03701 18.365 5.63601C18.965 6.23601 19.231 7.35401 18.695 9.05201C18.589 9.38501 18.455 9.73201 18.291 10.092C17.6626 9.268 16.9787 8.48786 16.244 7.75701C15.5134 7.02272 14.7336 6.33914 13.91 5.71101ZM13.5 12C13.4999 12.197 13.4611 12.392 13.3856 12.574C13.3102 12.756 13.1996 12.9213 13.0603 13.0605C12.921 13.1998 12.7556 13.3102 12.5736 13.3855C12.3916 13.4608 12.1965 13.4996 11.9995 13.4995C11.8025 13.4994 11.6075 13.4606 11.4255 13.3851C11.2436 13.3097 11.0782 13.1992 10.939 13.0598C10.7997 12.9205 10.6893 12.7551 10.614 12.5731C10.5387 12.3911 10.4999 12.196 10.5 11.999C10.5 11.6012 10.658 11.2197 10.9393 10.9384C11.2206 10.657 11.6022 10.499 12 10.499C12.3978 10.499 12.7794 10.657 13.0607 10.9384C13.342 11.2197 13.5 11.6012 13.5 11.999V12Z" fill="black"/>
</g>
<defs>
<clipPath id="clip0_29_2">
<rect width="24" height="24" fill="white"/>
</clipPath>
</defs>
</svg>
