<svg width="24" height="24" viewBox="0 0 24 24" fill="none" xmlns="http://www.w3.org/2000/svg">
<path d="M22 11C22.0028 10.2952 21.8193 9.60209 21.4681 8.99098C21.1169 8.37987 20.6104 7.87241 20 7.51999C20.0151 7.34699 20.0151 7.173 20 6.99999C20 6.20434 19.6839 5.44128 19.1213 4.87867C18.5587 4.31606 17.7957 3.99999 17 3.99999H16.82C16.6535 3.53831 16.3762 3.12453 16.0126 2.79494C15.6489 2.46535 15.2099 2.23003 14.7341 2.1096C14.2583 1.98917 13.7602 1.98731 13.2835 2.10419C12.8069 2.22108 12.3661 2.45313 12 2.77999C11.6339 2.45313 11.1932 2.22108 10.7165 2.10419C10.2398 1.98731 9.74173 1.98917 9.26593 2.1096C8.79013 2.23003 8.35115 2.46535 7.98747 2.79494C7.6238 3.12453 7.34654 3.53831 7.18001 3.99999H7.00001C6.20437 3.99999 5.4413 4.31606 4.87869 4.87867C4.31609 5.44128 4.00001 6.20434 4.00001 6.99999C3.98496 7.173 3.98496 7.34699 4.00001 7.51999C3.43248 7.84079 2.95195 8.29544 2.60026 8.84437C2.24856 9.3933 2.03637 10.0199 1.98215 10.6695C1.92793 11.3192 2.03332 11.9723 2.28915 12.5719C2.54499 13.1715 2.9435 13.6996 3.45001 14.11C3.12229 14.7213 2.95913 15.4072 2.97656 16.1006C2.99399 16.794 3.19141 17.4709 3.54944 18.0649C3.90747 18.6589 4.4138 19.1496 5.01874 19.4889C5.62369 19.8282 6.30645 20.0043 7.00001 20H7.18001C7.34654 20.4617 7.6238 20.8755 7.98747 21.205C8.35115 21.5346 8.79013 21.77 9.26593 21.8904C9.74173 22.0108 10.2398 22.0127 10.7165 21.8958C11.1932 21.7789 11.6339 21.5469 12 21.22C12.3661 21.5469 12.8069 21.7789 13.2835 21.8958C13.7602 22.0127 14.2583 22.0108 14.7341 21.8904C15.2099 21.77 15.6489 21.5346 16.0126 21.205C16.3762 20.8755 16.6535 20.4617 16.82 20H17C17.6893 19.9956 18.3658 19.8132 18.9639 19.4704C19.562 19.1276 20.0613 18.6361 20.4134 18.0434C20.7656 17.4508 20.9586 16.7773 20.9738 16.0881C20.9889 15.3989 20.8257 14.7175 20.5 14.11C20.9664 13.7366 21.3433 13.2634 21.6029 12.7252C21.8624 12.187 21.9981 11.5975 22 11ZM11 8.54999C10.7822 8.42542 10.5548 8.31842 10.32 8.22999C10.0681 8.14512 9.79271 8.16382 9.55454 8.28197C9.31637 8.40012 9.13488 8.60804 9.05001 8.85999C8.96515 9.11195 8.98384 9.3873 9.10199 9.62547C9.22014 9.86364 9.42806 10.0451 9.68002 10.13C10.065 10.2692 10.3979 10.5231 10.634 10.8575C10.87 11.1919 10.9978 11.5907 11 12V13.55C10.7822 13.4254 10.5548 13.3184 10.32 13.23C10.0681 13.1451 9.79271 13.1638 9.55454 13.282C9.31637 13.4001 9.13488 13.608 9.05001 13.86C8.96515 14.1119 8.98384 14.3873 9.10199 14.6255C9.22014 14.8636 9.42806 15.0451 9.68002 15.13C10.065 15.2692 10.3979 15.5231 10.634 15.8575C10.87 16.1919 10.9978 16.5907 11 17V19C11 19.2652 10.8947 19.5196 10.7071 19.7071C10.5196 19.8946 10.2652 20 10 20C9.80655 19.9987 9.6176 19.9414 9.45608 19.8349C9.29456 19.7284 9.1674 19.5773 9.09001 19.4C9.25769 19.3016 9.4181 19.1913 9.57001 19.07C9.67113 18.9859 9.75471 18.8828 9.81596 18.7665C9.87722 18.6501 9.91496 18.5228 9.92704 18.3919C9.93911 18.261 9.92527 18.129 9.88632 18.0034C9.84737 17.8778 9.78406 17.7611 9.70001 17.66C9.61597 17.5589 9.51283 17.4753 9.39648 17.414C9.28014 17.3528 9.15287 17.315 9.02194 17.303C8.89101 17.2909 8.75898 17.3047 8.6334 17.3437C8.50781 17.3826 8.39113 17.4459 8.29001 17.53C7.92894 17.834 7.472 18.0005 7.00001 18C6.46958 18 5.96087 17.7893 5.5858 17.4142C5.21073 17.0391 5.00001 16.5304 5.00001 16C5.0048 15.6236 5.11572 15.2562 5.32001 14.94C5.54444 14.9802 5.77201 15.0003 6.00001 15C6.26523 15 6.51958 14.8946 6.70712 14.7071C6.89466 14.5196 7.00001 14.2652 7.00001 14C7.00001 13.7348 6.89466 13.4804 6.70712 13.2929C6.51958 13.1054 6.26523 13 6.00001 13C5.7638 13.0014 5.52954 12.9572 5.31001 12.87C4.95036 12.7403 4.63542 12.5102 4.40251 12.207C4.16959 11.9038 4.02846 11.5402 3.99584 11.1593C3.96322 10.7783 4.04047 10.396 4.21844 10.0576C4.39642 9.71925 4.66765 9.43897 5.00001 9.24999C5.14211 9.38073 5.29612 9.49791 5.46001 9.59999C5.69075 9.7326 5.96472 9.76812 6.22164 9.69873C6.47857 9.62934 6.69741 9.46073 6.83001 9.22999C6.96262 8.99926 6.99814 8.72529 6.92875 8.46836C6.85936 8.21144 6.69075 7.9926 6.46001 7.85999C6.31924 7.78234 6.20184 7.66839 6.12001 7.52999C6.02756 7.36944 5.98574 7.18471 6.00001 6.99999C6.00001 6.73478 6.10537 6.48042 6.29291 6.29289C6.48044 6.10535 6.7348 5.99999 7.00001 5.99999C7.06968 5.99028 7.14035 5.99028 7.21001 5.99999C7.26295 6.16066 7.32642 6.31767 7.40001 6.46999C7.46534 6.58458 7.5527 6.68511 7.65705 6.7658C7.76139 6.84648 7.88067 6.90572 8.00801 6.94012C8.13535 6.97451 8.26824 6.98337 8.39902 6.96618C8.52979 6.949 8.65588 6.90611 8.77002 6.83999C8.99172 6.7066 9.15309 6.49247 9.22022 6.24259C9.28736 5.99271 9.25502 5.72653 9.13001 5.49999C9.04611 5.3466 9.00145 5.17483 9.00001 4.99999C9.00001 4.73478 9.10537 4.48042 9.29291 4.29289C9.48044 4.10535 9.7348 3.99999 10 3.99999C10.2652 3.99999 10.5196 4.10535 10.7071 4.29289C10.8947 4.48042 11 4.73478 11 4.99999V8.54999ZM18.69 12.87C18.4705 12.9572 18.2362 13.0014 18 13C17.7348 13 17.4804 13.1054 17.2929 13.2929C17.1054 13.4804 17 13.7348 17 14C17 14.2652 17.1054 14.5196 17.2929 14.7071C17.4804 14.8946 17.7348 15 18 15C18.228 15.0003 18.4556 14.9802 18.68 14.94C18.8843 15.2562 18.9952 15.6236 19 16C19 16.5304 18.7893 17.0391 18.4142 17.4142C18.0392 17.7893 17.5304 18 17 18C16.528 18.0005 16.0711 17.834 15.71 17.53C15.5058 17.3603 15.2425 17.2786 14.9781 17.303C14.7137 17.3274 14.4698 17.4558 14.3 17.66C14.1303 17.8642 14.0486 18.1275 14.073 18.3919C14.0974 18.6563 14.2258 18.9003 14.43 19.07C14.5819 19.1913 14.7423 19.3016 14.91 19.4C14.8326 19.5773 14.7055 19.7284 14.5439 19.8349C14.3824 19.9414 14.1935 19.9987 14 20C13.7348 20 13.4804 19.8946 13.2929 19.7071C13.1054 19.5196 13 19.2652 13 19V17C13.0022 16.5907 13.13 16.1919 13.366 15.8575C13.6021 15.5231 13.9351 15.2692 14.32 15.13C14.572 15.0451 14.7799 14.8636 14.898 14.6255C15.0162 14.3873 15.0349 14.1119 14.95 13.86C14.8651 13.608 14.6837 13.4001 14.4455 13.282C14.2073 13.1638 13.932 13.1451 13.68 13.23C13.4452 13.3184 13.2178 13.4254 13 13.55V12C13.0022 11.5907 13.13 11.1919 13.366 10.8575C13.6021 10.5231 13.9351 10.2692 14.32 10.13C14.4448 10.088 14.56 10.0218 14.6592 9.93522C14.7584 9.84865 14.8395 9.7434 14.898 9.62547C14.9565 9.50754 14.9912 9.37924 15.0002 9.2479C15.0091 9.11656 14.992 8.98475 14.95 8.85999C14.908 8.73524 14.8418 8.61998 14.7552 8.5208C14.6687 8.42163 14.5634 8.34047 14.4455 8.28197C14.3276 8.22347 14.1993 8.18877 14.0679 8.17985C13.9366 8.17093 13.8048 8.18797 13.68 8.22999C13.4452 8.31842 13.2178 8.42542 13 8.54999V4.99999C13 4.73478 13.1054 4.48042 13.2929 4.29289C13.4804 4.10535 13.7348 3.99999 14 3.99999C14.2652 3.99999 14.5196 4.10535 14.7071 4.29289C14.8947 4.48042 15 4.73478 15 4.99999C14.9986 5.17483 14.9539 5.3466 14.87 5.49999C14.8035 5.61353 14.76 5.73908 14.7421 5.86945C14.7242 5.99982 14.7322 6.13245 14.7656 6.25972C14.7991 6.387 14.8573 6.50642 14.937 6.61114C15.0167 6.71587 15.1163 6.80383 15.23 6.86999C15.3441 6.93611 15.4702 6.979 15.601 6.99618C15.7318 7.01337 15.8647 7.00451 15.992 6.97012C16.1194 6.93572 16.2386 6.87648 16.343 6.7958C16.4473 6.71511 16.5347 6.61458 16.6 6.49999C16.6749 6.33793 16.7384 6.17086 16.79 5.99999C16.8597 5.99028 16.9304 5.99028 17 5.99999C17.2652 5.99999 17.5196 6.10535 17.7071 6.29289C17.8947 6.48042 18 6.73478 18 6.99999C17.9985 7.19603 17.9394 7.38729 17.83 7.54999C17.7482 7.67976 17.6346 7.78647 17.5 7.85999C17.2693 7.9926 17.1007 8.21144 17.0313 8.46836C16.9619 8.72529 16.9974 8.99926 17.13 9.22999C17.2626 9.46073 17.4815 9.62934 17.7384 9.69873C17.9953 9.76812 18.2693 9.7326 18.5 9.59999C18.6796 9.5029 18.8473 9.38546 19 9.24999C19.3335 9.43563 19.6069 9.71282 19.788 10.0488C19.969 10.3848 20.0501 10.7656 20.0218 11.1463C19.9934 11.5269 19.8567 11.8915 19.6278 12.1969C19.3989 12.5023 19.0874 12.7359 18.73 12.87H18.69Z" fill="black"/>
</svg>
