<svg width="158" height="20" viewBox="0 0 158 20" fill="none" xmlns="http://www.w3.org/2000/svg">
<g clip-path="url(#clip0_22_2)">
<path d="M20.7037 19.5V6.75925" stroke="black" stroke-width="1.59259"/>
<path d="M25.4815 19.5V6.75925" stroke="black" stroke-width="1.59259"/>
<path d="M30.2593 19.5V8.35187" stroke="black" stroke-width="1.59259"/>
<path d="M15.9259 19.5V8.35187" stroke="black" stroke-width="1.59259"/>
<path d="M11.1481 19.5V11.537" stroke="black" stroke-width="1.59259"/>
<path d="M35.037 19.5V11.537" stroke="black" stroke-width="1.59259"/>
<path d="M1.92423 17.6948L1.59259 18.7037H6.71164L7.0333 17.9167C13.0703 3.14662 34.1599 3.65825 39.4735 18.7037H44.5926C38.5707 -2.43304 8.78774 -3.18379 1.92423 17.6948Z" stroke="black" stroke-width="1.59259"/>
<path d="M4.37964 18.7037H41.8056" stroke="black" stroke-width="1.59259"/>
</g>
<path d="M67.066 4.12V16H64.33V10.546L64.42 6.892H64.384L61.45 16H58.948L56.014 6.892H55.978L56.068 10.546V16H53.314V4.12H57.724L59.596 10.168L60.262 12.688H60.298L60.982 10.186L62.836 4.12H67.066ZM74.4677 10.294C74.4677 9.874 74.3477 9.544 74.1077 9.304C73.8797 9.052 73.5677 8.926 73.1717 8.926C72.7757 8.926 72.4337 9.028 72.1457 9.232C71.8697 9.424 71.6777 9.772 71.5697 10.276L68.9777 9.664C69.1457 8.8 69.5897 8.11 70.3097 7.594C71.0297 7.078 72.0437 6.82 73.3517 6.82C74.2277 6.82 74.9717 6.952 75.5837 7.216C76.2077 7.468 76.6817 7.852 77.0057 8.368C77.3417 8.872 77.5097 9.496 77.5097 10.24V13.534C77.5097 14.002 77.7197 14.236 78.1397 14.236C78.3557 14.236 78.5297 14.212 78.6617 14.164L78.4817 15.91C78.1217 16.078 77.6837 16.162 77.1677 16.162C76.6997 16.162 76.2857 16.09 75.9257 15.946C75.5657 15.79 75.2837 15.562 75.0797 15.262C74.8757 14.95 74.7737 14.56 74.7737 14.092V13.984L75.1157 13.858C75.1157 14.374 74.9597 14.806 74.6477 15.154C74.3477 15.502 73.9517 15.76 73.4597 15.928C72.9797 16.096 72.4757 16.18 71.9477 16.18C71.3357 16.18 70.8017 16.084 70.3457 15.892C69.8897 15.7 69.5357 15.424 69.2837 15.064C69.0437 14.692 68.9237 14.236 68.9237 13.696C68.9237 13.048 69.1157 12.514 69.4997 12.094C69.8957 11.662 70.5137 11.362 71.3537 11.194L74.7557 10.492L74.7377 12.112L73.0097 12.472C72.6497 12.544 72.3797 12.652 72.1997 12.796C72.0317 12.928 71.9477 13.132 71.9477 13.408C71.9477 13.672 72.0437 13.87 72.2357 14.002C72.4277 14.134 72.6557 14.2 72.9197 14.2C73.1237 14.2 73.3157 14.17 73.4957 14.11C73.6877 14.05 73.8557 13.96 73.9997 13.84C74.1437 13.708 74.2577 13.546 74.3417 13.354C74.4257 13.162 74.4677 12.934 74.4677 12.67V10.294ZM83.1112 16.18C82.3672 16.18 81.7132 16 81.1492 15.64C80.5972 15.268 80.1652 14.734 79.8532 14.038C79.5532 13.342 79.4032 12.508 79.4032 11.536C79.4032 10.528 79.5592 9.676 79.8712 8.98C80.1952 8.284 80.6392 7.75 81.2032 7.378C81.7792 7.006 82.4392 6.82 83.1832 6.82C83.9992 6.82 84.6532 7.072 85.1452 7.576C85.6492 8.068 85.9732 8.698 86.1172 9.466L85.8292 9.844V3.184H88.8892V16H86.1532L85.9552 12.94L86.3152 13.21C86.2432 13.81 86.0572 14.332 85.7572 14.776C85.4692 15.22 85.0972 15.568 84.6412 15.82C84.1972 16.06 83.6872 16.18 83.1112 16.18ZM84.1732 13.93C84.5212 13.93 84.8152 13.84 85.0552 13.66C85.3072 13.468 85.4992 13.186 85.6312 12.814C85.7632 12.442 85.8292 11.986 85.8292 11.446C85.8292 10.942 85.7632 10.516 85.6312 10.168C85.5112 9.808 85.3252 9.538 85.0732 9.358C84.8332 9.166 84.5392 9.07 84.1912 9.07C83.6632 9.07 83.2432 9.268 82.9312 9.664C82.6312 10.048 82.4812 10.66 82.4812 11.5C82.4812 12.34 82.6312 12.958 82.9312 13.354C83.2312 13.738 83.6452 13.93 84.1732 13.93ZM91.0843 16V7H93.7843L93.9103 8.944C94.1383 8.272 94.4743 7.75 94.9183 7.378C95.3743 7.006 95.9503 6.82 96.6463 6.82C96.8743 6.82 97.0663 6.838 97.2223 6.874C97.3903 6.91 97.5223 6.958 97.6183 7.018L97.3123 9.538C97.1923 9.49 97.0363 9.454 96.8443 9.43C96.6643 9.394 96.4423 9.376 96.1783 9.376C95.8183 9.376 95.4823 9.454 95.1703 9.61C94.8583 9.766 94.6063 10 94.4143 10.312C94.2343 10.612 94.1443 10.996 94.1443 11.464V16H91.0843ZM103.753 10.294C103.753 9.874 103.633 9.544 103.393 9.304C103.165 9.052 102.853 8.926 102.457 8.926C102.061 8.926 101.719 9.028 101.431 9.232C101.155 9.424 100.963 9.772 100.855 10.276L98.2628 9.664C98.4308 8.8 98.8748 8.11 99.5948 7.594C100.315 7.078 101.329 6.82 102.637 6.82C103.513 6.82 104.257 6.952 104.869 7.216C105.493 7.468 105.967 7.852 106.291 8.368C106.627 8.872 106.795 9.496 106.795 10.24V13.534C106.795 14.002 107.005 14.236 107.425 14.236C107.641 14.236 107.815 14.212 107.947 14.164L107.767 15.91C107.407 16.078 106.969 16.162 106.453 16.162C105.985 16.162 105.571 16.09 105.211 15.946C104.851 15.79 104.569 15.562 104.365 15.262C104.161 14.95 104.059 14.56 104.059 14.092V13.984L104.401 13.858C104.401 14.374 104.245 14.806 103.933 15.154C103.633 15.502 103.237 15.76 102.745 15.928C102.265 16.096 101.761 16.18 101.233 16.18C100.621 16.18 100.087 16.084 99.6308 15.892C99.1748 15.7 98.8208 15.424 98.5688 15.064C98.3288 14.692 98.2088 14.236 98.2088 13.696C98.2088 13.048 98.4008 12.514 98.7848 12.094C99.1808 11.662 99.7988 11.362 100.639 11.194L104.041 10.492L104.023 12.112L102.295 12.472C101.935 12.544 101.665 12.652 101.485 12.796C101.317 12.928 101.233 13.132 101.233 13.408C101.233 13.672 101.329 13.87 101.521 14.002C101.713 14.134 101.941 14.2 102.205 14.2C102.409 14.2 102.601 14.17 102.781 14.11C102.973 14.05 103.141 13.96 103.285 13.84C103.429 13.708 103.543 13.546 103.627 13.354C103.711 13.162 103.753 12.934 103.753 12.67V10.294ZM112.935 16.18C112.035 16.18 111.195 16.036 110.415 15.748C109.647 15.448 109.011 15.022 108.507 14.47L109.947 12.778C110.247 13.162 110.643 13.486 111.135 13.75C111.639 14.002 112.197 14.128 112.809 14.128C113.181 14.128 113.487 14.074 113.727 13.966C113.967 13.858 114.087 13.69 114.087 13.462C114.087 13.294 114.027 13.162 113.907 13.066C113.787 12.958 113.547 12.868 113.187 12.796L111.927 12.544C110.799 12.316 109.995 11.98 109.515 11.536C109.047 11.08 108.813 10.486 108.813 9.754C108.813 9.262 108.963 8.794 109.263 8.35C109.563 7.894 110.025 7.528 110.649 7.252C111.273 6.964 112.071 6.82 113.043 6.82C113.955 6.82 114.759 6.952 115.455 7.216C116.151 7.48 116.703 7.864 117.111 8.368L115.653 10.024C115.365 9.664 114.993 9.382 114.537 9.178C114.081 8.974 113.625 8.872 113.169 8.872C112.881 8.872 112.635 8.902 112.431 8.962C112.239 9.01 112.095 9.082 111.999 9.178C111.903 9.274 111.855 9.394 111.855 9.538C111.855 9.694 111.927 9.832 112.071 9.952C112.227 10.06 112.509 10.156 112.917 10.24L114.555 10.564C115.479 10.732 116.145 11.038 116.553 11.482C116.961 11.926 117.165 12.46 117.165 13.084C117.165 13.672 117.009 14.2 116.697 14.668C116.385 15.136 115.917 15.508 115.293 15.784C114.669 16.048 113.883 16.18 112.935 16.18ZM124.387 4.12C125.359 4.12 126.187 4.276 126.871 4.588C127.555 4.9 128.077 5.35 128.437 5.938C128.797 6.526 128.977 7.24 128.977 8.08C128.977 8.92 128.797 9.634 128.437 10.222C128.077 10.81 127.555 11.26 126.871 11.572C126.187 11.884 125.359 12.04 124.387 12.04H122.029V16H118.933V4.12H124.387ZM123.901 9.718C124.549 9.718 125.035 9.586 125.359 9.322C125.695 9.046 125.863 8.632 125.863 8.08C125.863 7.528 125.695 7.12 125.359 6.856C125.035 6.58 124.549 6.442 123.901 6.442H122.029V9.718H123.901ZM135.763 10.294C135.763 9.874 135.643 9.544 135.403 9.304C135.175 9.052 134.863 8.926 134.467 8.926C134.071 8.926 133.729 9.028 133.441 9.232C133.165 9.424 132.973 9.772 132.865 10.276L130.273 9.664C130.441 8.8 130.885 8.11 131.605 7.594C132.325 7.078 133.339 6.82 134.647 6.82C135.523 6.82 136.267 6.952 136.879 7.216C137.503 7.468 137.977 7.852 138.301 8.368C138.637 8.872 138.805 9.496 138.805 10.24V13.534C138.805 14.002 139.015 14.236 139.435 14.236C139.651 14.236 139.825 14.212 139.957 14.164L139.777 15.91C139.417 16.078 138.979 16.162 138.463 16.162C137.995 16.162 137.581 16.09 137.221 15.946C136.861 15.79 136.579 15.562 136.375 15.262C136.171 14.95 136.069 14.56 136.069 14.092V13.984L136.411 13.858C136.411 14.374 136.255 14.806 135.943 15.154C135.643 15.502 135.247 15.76 134.755 15.928C134.275 16.096 133.771 16.18 133.243 16.18C132.631 16.18 132.097 16.084 131.641 15.892C131.185 15.7 130.831 15.424 130.579 15.064C130.339 14.692 130.219 14.236 130.219 13.696C130.219 13.048 130.411 12.514 130.795 12.094C131.191 11.662 131.809 11.362 132.649 11.194L136.051 10.492L136.033 12.112L134.305 12.472C133.945 12.544 133.675 12.652 133.495 12.796C133.327 12.928 133.243 13.132 133.243 13.408C133.243 13.672 133.339 13.87 133.531 14.002C133.723 14.134 133.951 14.2 134.215 14.2C134.419 14.2 134.611 14.17 134.791 14.11C134.983 14.05 135.151 13.96 135.295 13.84C135.439 13.708 135.553 13.546 135.637 13.354C135.721 13.162 135.763 12.934 135.763 12.67V10.294ZM144.188 3.184V12.94C144.188 13.336 144.254 13.618 144.386 13.786C144.518 13.954 144.74 14.038 145.052 14.038C145.232 14.038 145.382 14.026 145.502 14.002C145.622 13.978 145.766 13.942 145.934 13.894L145.736 15.73C145.52 15.862 145.238 15.97 144.89 16.054C144.542 16.138 144.2 16.18 143.864 16.18C142.904 16.18 142.208 15.958 141.776 15.514C141.344 15.07 141.128 14.344 141.128 13.336V3.184H144.188ZM150.077 3.184V12.94C150.077 13.336 150.143 13.618 150.275 13.786C150.407 13.954 150.629 14.038 150.941 14.038C151.121 14.038 151.271 14.026 151.391 14.002C151.511 13.978 151.655 13.942 151.823 13.894L151.625 15.73C151.409 15.862 151.127 15.97 150.779 16.054C150.431 16.138 150.089 16.18 149.753 16.18C148.793 16.18 148.097 15.958 147.665 15.514C147.233 15.07 147.017 14.344 147.017 13.336V3.184H150.077ZM154.472 5.956C153.848 5.956 153.392 5.842 153.104 5.614C152.828 5.374 152.69 5.002 152.69 4.498C152.69 3.982 152.828 3.61 153.104 3.382C153.392 3.142 153.848 3.022 154.472 3.022C155.084 3.022 155.534 3.142 155.822 3.382C156.11 3.61 156.254 3.982 156.254 4.498C156.254 5.002 156.11 5.374 155.822 5.614C155.534 5.842 155.084 5.956 154.472 5.956ZM156.002 7V16H152.942V7H156.002Z" fill="black"/>
<defs>
<clipPath id="clip0_22_2">
<rect width="46" height="20" fill="white"/>
</clipPath>
</defs>
</svg>
