<svg width="24" height="24" viewBox="0 0 24 24" fill="none" xmlns="http://www.w3.org/2000/svg">
<path d="M4.99999 21C4.14999 21 3.54566 20.621 3.18699 19.863C2.82832 19.105 2.91599 18.4007 3.44999 17.75L8.99999 11V5H7.99999C7.71666 5 7.47899 4.904 7.28699 4.712C7.09499 4.52 6.99932 4.28267 6.99999 4C6.99999 3.71667 7.09599 3.479 7.28799 3.287C7.47999 3.095 7.71732 2.99934 7.99999 3H16C16.2833 3 16.521 3.096 16.713 3.288C16.905 3.48 17.0007 3.71734 17 4C17 4.28334 16.904 4.521 16.712 4.713C16.52 4.905 16.2827 5.00067 16 5H15V11L20.55 17.75C21.0833 18.4 21.171 19.1043 20.813 19.863C20.455 20.6217 19.8507 21.0007 19 21H4.99999ZM4.99999 19H19L13 11.7V5H11V11.7L4.99999 19Z" fill="black"/>
</svg>
