<svg width="48" height="48" viewBox="0 0 48 48" fill="none" xmlns="http://www.w3.org/2000/svg">
<path d="M17.02 4H30.98C31.444 4 31.8 4 32.112 4.03C34.328 4.248 36.142 5.58 36.912 7.374H11.088C11.858 5.58 13.672 4.248 15.888 4.03C16.196 4 16.552 4 17.02 4ZM12.62 9.446C9.84 9.446 7.56 11.126 6.8 13.354C6.78333 13.4004 6.76733 13.4471 6.752 13.494C7.548 13.254 8.378 13.094 9.216 12.988C11.376 12.71 14.108 12.71 17.28 12.71H31.064C34.236 12.71 36.966 12.71 39.128 12.988C39.968 13.096 40.796 13.252 41.592 13.494C41.5775 13.4471 41.5621 13.4004 41.546 13.354C40.786 11.126 38.506 9.446 35.724 9.446H12.62Z" fill="black"/>
<path fill-rule="evenodd" clip-rule="evenodd" d="M30.656 15.084H17.344C10.596 15.084 7.22 15.084 5.324 17.058C3.428 19.032 3.874 22.08 4.768 28.178L5.612 33.962C6.312 38.744 6.662 41.136 8.456 42.568C10.252 44 12.896 44 18.19 44H29.81C35.102 44 37.75 44 39.544 42.568C41.338 41.136 41.688 38.744 42.388 33.962L43.232 28.18C44.126 22.08 44.572 19.032 42.676 17.058C40.78 15.084 37.404 15.084 30.656 15.084ZM29.162 31.588C30.28 30.896 30.28 29.104 29.162 28.412L22.42 24.232C21.334 23.558 20 24.434 20 25.82V34.18C20 35.566 21.334 36.44 22.42 35.768L29.162 31.588Z" fill="black"/>
</svg>
